<mxfile host="app.diagrams.net" modified="2022-05-30T12:02:04.540Z" agent="5.0 (Windows NT 10.0; Win64; x64) AppleWebKit/537.36 (KHTML, like Gecko) Chrome/102.0.5005.62 Safari/537.36" etag="pCtYDjHHUJWJ-_4N00T7" version="18.1.3" type="github">
  <diagram id="5fWxjz4X0TFu8gdwMYQC" name="Page-1">
    <mxGraphModel dx="865" dy="1556" grid="1" gridSize="10" guides="1" tooltips="1" connect="1" arrows="1" fold="1" page="1" pageScale="1" pageWidth="850" pageHeight="1100" math="0" shadow="0">
      <root>
        <mxCell id="0" />
        <mxCell id="1" parent="0" />
        <mxCell id="MZk_WiGhLf1E-WdtC0qU-1" value="" style="edgeStyle=orthogonalEdgeStyle;rounded=0;orthogonalLoop=1;jettySize=auto;html=1;entryX=0.5;entryY=0;entryDx=0;entryDy=0;endArrow=ERoneToMany;endFill=0;strokeColor=default;startArrow=ERone;startFill=0;" parent="1" source="MZk_WiGhLf1E-WdtC0qU-2" target="MZk_WiGhLf1E-WdtC0qU-6" edge="1">
          <mxGeometry relative="1" as="geometry" />
        </mxCell>
        <mxCell id="MZk_WiGhLf1E-WdtC0qU-2" value="Country" style="swimlane;fontStyle=0;childLayout=stackLayout;horizontal=1;startSize=26;fillColor=none;horizontalStack=0;resizeParent=1;resizeParentMax=0;resizeLast=0;collapsible=1;marginBottom=0;" parent="1" vertex="1">
          <mxGeometry x="300" y="80" width="140" height="78" as="geometry" />
        </mxCell>
        <mxCell id="MZk_WiGhLf1E-WdtC0qU-3" value="ID" style="text;strokeColor=none;fillColor=none;align=left;verticalAlign=top;spacingLeft=4;spacingRight=4;overflow=hidden;rotatable=0;points=[[0,0.5],[1,0.5]];portConstraint=eastwest;" parent="MZk_WiGhLf1E-WdtC0qU-2" vertex="1">
          <mxGeometry y="26" width="140" height="26" as="geometry" />
        </mxCell>
        <mxCell id="MZk_WiGhLf1E-WdtC0qU-4" value="name" style="text;strokeColor=none;fillColor=none;align=left;verticalAlign=top;spacingLeft=4;spacingRight=4;overflow=hidden;rotatable=0;points=[[0,0.5],[1,0.5]];portConstraint=eastwest;" parent="MZk_WiGhLf1E-WdtC0qU-2" vertex="1">
          <mxGeometry y="52" width="140" height="26" as="geometry" />
        </mxCell>
        <mxCell id="MZk_WiGhLf1E-WdtC0qU-5" value="" style="edgeStyle=orthogonalEdgeStyle;rounded=0;orthogonalLoop=1;jettySize=auto;html=1;startArrow=ERone;startFill=0;endArrow=ERoneToMany;endFill=0;strokeColor=default;entryX=0.5;entryY=0;entryDx=0;entryDy=0;" parent="1" source="MZk_WiGhLf1E-WdtC0qU-6" target="MZk_WiGhLf1E-WdtC0qU-10" edge="1">
          <mxGeometry relative="1" as="geometry" />
        </mxCell>
        <mxCell id="MZk_WiGhLf1E-WdtC0qU-6" value="City" style="swimlane;fontStyle=0;childLayout=stackLayout;horizontal=1;startSize=26;fillColor=none;horizontalStack=0;resizeParent=1;resizeParentMax=0;resizeLast=0;collapsible=1;marginBottom=0;" parent="1" vertex="1">
          <mxGeometry x="300" y="220" width="140" height="104" as="geometry" />
        </mxCell>
        <mxCell id="MZk_WiGhLf1E-WdtC0qU-7" value="ID" style="text;strokeColor=none;fillColor=none;align=left;verticalAlign=top;spacingLeft=4;spacingRight=4;overflow=hidden;rotatable=0;points=[[0,0.5],[1,0.5]];portConstraint=eastwest;" parent="MZk_WiGhLf1E-WdtC0qU-6" vertex="1">
          <mxGeometry y="26" width="140" height="26" as="geometry" />
        </mxCell>
        <mxCell id="MZk_WiGhLf1E-WdtC0qU-8" value="ID_Country" style="text;strokeColor=none;fillColor=none;align=left;verticalAlign=top;spacingLeft=4;spacingRight=4;overflow=hidden;rotatable=0;points=[[0,0.5],[1,0.5]];portConstraint=eastwest;" parent="MZk_WiGhLf1E-WdtC0qU-6" vertex="1">
          <mxGeometry y="52" width="140" height="26" as="geometry" />
        </mxCell>
        <mxCell id="MZk_WiGhLf1E-WdtC0qU-9" value="name" style="text;strokeColor=none;fillColor=none;align=left;verticalAlign=top;spacingLeft=4;spacingRight=4;overflow=hidden;rotatable=0;points=[[0,0.5],[1,0.5]];portConstraint=eastwest;" parent="MZk_WiGhLf1E-WdtC0qU-6" vertex="1">
          <mxGeometry y="78" width="140" height="26" as="geometry" />
        </mxCell>
        <mxCell id="MZk_WiGhLf1E-WdtC0qU-10" value="Flight" style="swimlane;fontStyle=0;childLayout=stackLayout;horizontal=1;startSize=26;fillColor=none;horizontalStack=0;resizeParent=1;resizeParentMax=0;resizeLast=0;collapsible=1;marginBottom=0;" parent="1" vertex="1">
          <mxGeometry x="300" y="360" width="140" height="182" as="geometry" />
        </mxCell>
        <mxCell id="MZk_WiGhLf1E-WdtC0qU-11" value="ID" style="text;strokeColor=none;fillColor=none;align=left;verticalAlign=top;spacingLeft=4;spacingRight=4;overflow=hidden;rotatable=0;points=[[0,0.5],[1,0.5]];portConstraint=eastwest;" parent="MZk_WiGhLf1E-WdtC0qU-10" vertex="1">
          <mxGeometry y="26" width="140" height="26" as="geometry" />
        </mxCell>
        <mxCell id="MZk_WiGhLf1E-WdtC0qU-12" value="ID_City" style="text;strokeColor=none;fillColor=none;align=left;verticalAlign=top;spacingLeft=4;spacingRight=4;overflow=hidden;rotatable=0;points=[[0,0.5],[1,0.5]];portConstraint=eastwest;" parent="MZk_WiGhLf1E-WdtC0qU-10" vertex="1">
          <mxGeometry y="52" width="140" height="26" as="geometry" />
        </mxCell>
        <mxCell id="MZk_WiGhLf1E-WdtC0qU-13" value="ID_Plane" style="text;strokeColor=none;fillColor=none;align=left;verticalAlign=top;spacingLeft=4;spacingRight=4;overflow=hidden;rotatable=0;points=[[0,0.5],[1,0.5]];portConstraint=eastwest;" parent="MZk_WiGhLf1E-WdtC0qU-10" vertex="1">
          <mxGeometry y="78" width="140" height="26" as="geometry" />
        </mxCell>
        <mxCell id="MZk_WiGhLf1E-WdtC0qU-14" value="date" style="text;strokeColor=none;fillColor=none;align=left;verticalAlign=top;spacingLeft=4;spacingRight=4;overflow=hidden;rotatable=0;points=[[0,0.5],[1,0.5]];portConstraint=eastwest;" parent="MZk_WiGhLf1E-WdtC0qU-10" vertex="1">
          <mxGeometry y="104" width="140" height="26" as="geometry" />
        </mxCell>
        <mxCell id="MZk_WiGhLf1E-WdtC0qU-15" value="takeoff_time" style="text;strokeColor=none;fillColor=none;align=left;verticalAlign=top;spacingLeft=4;spacingRight=4;overflow=hidden;rotatable=0;points=[[0,0.5],[1,0.5]];portConstraint=eastwest;" parent="MZk_WiGhLf1E-WdtC0qU-10" vertex="1">
          <mxGeometry y="130" width="140" height="26" as="geometry" />
        </mxCell>
        <mxCell id="MZk_WiGhLf1E-WdtC0qU-16" value="boarding_time" style="text;strokeColor=none;fillColor=none;align=left;verticalAlign=top;spacingLeft=4;spacingRight=4;overflow=hidden;rotatable=0;points=[[0,0.5],[1,0.5]];portConstraint=eastwest;" parent="MZk_WiGhLf1E-WdtC0qU-10" vertex="1">
          <mxGeometry y="156" width="140" height="26" as="geometry" />
        </mxCell>
        <mxCell id="MZk_WiGhLf1E-WdtC0qU-17" value="" style="edgeStyle=orthogonalEdgeStyle;rounded=0;orthogonalLoop=1;jettySize=auto;html=1;startArrow=ERone;startFill=0;endArrow=ERoneToMany;endFill=0;strokeColor=default;entryX=1;entryY=0.5;entryDx=0;entryDy=0;" parent="1" source="MZk_WiGhLf1E-WdtC0qU-18" target="MZk_WiGhLf1E-WdtC0qU-23" edge="1">
          <mxGeometry relative="1" as="geometry" />
        </mxCell>
        <mxCell id="MZk_WiGhLf1E-WdtC0qU-18" value="Passenger" style="swimlane;fontStyle=0;childLayout=stackLayout;horizontal=1;startSize=26;fillColor=none;horizontalStack=0;resizeParent=1;resizeParentMax=0;resizeLast=0;collapsible=1;marginBottom=0;" parent="1" vertex="1">
          <mxGeometry x="480" y="560" width="140" height="78" as="geometry" />
        </mxCell>
        <mxCell id="MZk_WiGhLf1E-WdtC0qU-19" value="ID" style="text;strokeColor=none;fillColor=none;align=left;verticalAlign=top;spacingLeft=4;spacingRight=4;overflow=hidden;rotatable=0;points=[[0,0.5],[1,0.5]];portConstraint=eastwest;" parent="MZk_WiGhLf1E-WdtC0qU-18" vertex="1">
          <mxGeometry y="26" width="140" height="26" as="geometry" />
        </mxCell>
        <mxCell id="MZk_WiGhLf1E-WdtC0qU-20" value="name" style="text;strokeColor=none;fillColor=none;align=left;verticalAlign=top;spacingLeft=4;spacingRight=4;overflow=hidden;rotatable=0;points=[[0,0.5],[1,0.5]];portConstraint=eastwest;" parent="MZk_WiGhLf1E-WdtC0qU-18" vertex="1">
          <mxGeometry y="52" width="140" height="26" as="geometry" />
        </mxCell>
        <mxCell id="MZk_WiGhLf1E-WdtC0qU-21" value="" style="edgeStyle=orthogonalEdgeStyle;rounded=0;orthogonalLoop=1;jettySize=auto;html=1;startArrow=ERoneToMany;startFill=0;endArrow=ERone;endFill=0;strokeColor=default;entryX=0.557;entryY=1.038;entryDx=0;entryDy=0;entryPerimeter=0;" parent="1" source="MZk_WiGhLf1E-WdtC0qU-22" target="MZk_WiGhLf1E-WdtC0qU-16" edge="1">
          <mxGeometry relative="1" as="geometry">
            <mxPoint x="320" y="540" as="targetPoint" />
          </mxGeometry>
        </mxCell>
        <mxCell id="MZk_WiGhLf1E-WdtC0qU-22" value="Ticket" style="swimlane;fontStyle=0;childLayout=stackLayout;horizontal=1;startSize=26;fillColor=none;horizontalStack=0;resizeParent=1;resizeParentMax=0;resizeLast=0;collapsible=1;marginBottom=0;" parent="1" vertex="1">
          <mxGeometry x="308" y="560" width="140" height="104" as="geometry" />
        </mxCell>
        <mxCell id="MZk_WiGhLf1E-WdtC0qU-23" value="ID_Passenger" style="text;strokeColor=none;fillColor=none;align=left;verticalAlign=top;spacingLeft=4;spacingRight=4;overflow=hidden;rotatable=0;points=[[0,0.5],[1,0.5]];portConstraint=eastwest;" parent="MZk_WiGhLf1E-WdtC0qU-22" vertex="1">
          <mxGeometry y="26" width="140" height="26" as="geometry" />
        </mxCell>
        <mxCell id="MZk_WiGhLf1E-WdtC0qU-24" value="ID_Flight" style="text;strokeColor=none;fillColor=none;align=left;verticalAlign=top;spacingLeft=4;spacingRight=4;overflow=hidden;rotatable=0;points=[[0,0.5],[1,0.5]];portConstraint=eastwest;" parent="MZk_WiGhLf1E-WdtC0qU-22" vertex="1">
          <mxGeometry y="52" width="140" height="26" as="geometry" />
        </mxCell>
        <mxCell id="MZk_WiGhLf1E-WdtC0qU-25" value="seat" style="text;strokeColor=none;fillColor=none;align=left;verticalAlign=top;spacingLeft=4;spacingRight=4;overflow=hidden;rotatable=0;points=[[0,0.5],[1,0.5]];portConstraint=eastwest;" parent="MZk_WiGhLf1E-WdtC0qU-22" vertex="1">
          <mxGeometry y="78" width="140" height="26" as="geometry" />
        </mxCell>
        <mxCell id="MZk_WiGhLf1E-WdtC0qU-26" value="" style="edgeStyle=orthogonalEdgeStyle;rounded=0;orthogonalLoop=1;jettySize=auto;html=1;startArrow=ERoneToMany;startFill=0;endArrow=ERone;endFill=0;strokeColor=default;" parent="1" source="MZk_WiGhLf1E-WdtC0qU-27" target="MZk_WiGhLf1E-WdtC0qU-13" edge="1">
          <mxGeometry relative="1" as="geometry" />
        </mxCell>
        <mxCell id="MZk_WiGhLf1E-WdtC0qU-27" value="Plane" style="swimlane;fontStyle=0;childLayout=stackLayout;horizontal=1;startSize=26;fillColor=none;horizontalStack=0;resizeParent=1;resizeParentMax=0;resizeLast=0;collapsible=1;marginBottom=0;" parent="1" vertex="1">
          <mxGeometry x="100" y="373" width="140" height="104" as="geometry" />
        </mxCell>
        <mxCell id="MZk_WiGhLf1E-WdtC0qU-28" value="ID" style="text;strokeColor=none;fillColor=none;align=left;verticalAlign=top;spacingLeft=4;spacingRight=4;overflow=hidden;rotatable=0;points=[[0,0.5],[1,0.5]];portConstraint=eastwest;" parent="MZk_WiGhLf1E-WdtC0qU-27" vertex="1">
          <mxGeometry y="26" width="140" height="26" as="geometry" />
        </mxCell>
        <mxCell id="MZk_WiGhLf1E-WdtC0qU-29" value="name" style="text;strokeColor=none;fillColor=none;align=left;verticalAlign=top;spacingLeft=4;spacingRight=4;overflow=hidden;rotatable=0;points=[[0,0.5],[1,0.5]];portConstraint=eastwest;" parent="MZk_WiGhLf1E-WdtC0qU-27" vertex="1">
          <mxGeometry y="52" width="140" height="26" as="geometry" />
        </mxCell>
        <mxCell id="MZk_WiGhLf1E-WdtC0qU-30" value="number_seats" style="text;strokeColor=none;fillColor=none;align=left;verticalAlign=top;spacingLeft=4;spacingRight=4;overflow=hidden;rotatable=0;points=[[0,0.5],[1,0.5]];portConstraint=eastwest;" parent="MZk_WiGhLf1E-WdtC0qU-27" vertex="1">
          <mxGeometry y="78" width="140" height="26" as="geometry" />
        </mxCell>
        <mxCell id="kqUWAlGGIByAxEXqNYO0-60" value="" style="edgeStyle=orthogonalEdgeStyle;rounded=0;orthogonalLoop=1;jettySize=auto;html=1;entryX=0.5;entryY=0;entryDx=0;entryDy=0;endArrow=ERoneToMany;endFill=0;strokeColor=default;startArrow=none;startFill=0;" edge="1" parent="1" source="kqUWAlGGIByAxEXqNYO0-90" target="kqUWAlGGIByAxEXqNYO0-65">
          <mxGeometry relative="1" as="geometry" />
        </mxCell>
        <mxCell id="kqUWAlGGIByAxEXqNYO0-61" value="Country" style="swimlane;fontStyle=0;childLayout=stackLayout;horizontal=1;startSize=26;fillColor=none;horizontalStack=0;resizeParent=1;resizeParentMax=0;resizeLast=0;collapsible=1;marginBottom=0;" vertex="1" parent="1">
          <mxGeometry x="1090" y="-120" width="140" height="78" as="geometry" />
        </mxCell>
        <mxCell id="kqUWAlGGIByAxEXqNYO0-62" value="ID" style="text;strokeColor=none;fillColor=none;align=left;verticalAlign=top;spacingLeft=4;spacingRight=4;overflow=hidden;rotatable=0;points=[[0,0.5],[1,0.5]];portConstraint=eastwest;" vertex="1" parent="kqUWAlGGIByAxEXqNYO0-61">
          <mxGeometry y="26" width="140" height="26" as="geometry" />
        </mxCell>
        <mxCell id="kqUWAlGGIByAxEXqNYO0-63" value="name" style="text;strokeColor=none;fillColor=none;align=left;verticalAlign=top;spacingLeft=4;spacingRight=4;overflow=hidden;rotatable=0;points=[[0,0.5],[1,0.5]];portConstraint=eastwest;" vertex="1" parent="kqUWAlGGIByAxEXqNYO0-61">
          <mxGeometry y="52" width="140" height="26" as="geometry" />
        </mxCell>
        <mxCell id="kqUWAlGGIByAxEXqNYO0-64" value="" style="edgeStyle=orthogonalEdgeStyle;rounded=0;orthogonalLoop=1;jettySize=auto;html=1;startArrow=none;startFill=0;endArrow=ERoneToMany;endFill=0;strokeColor=default;entryX=0.5;entryY=0;entryDx=0;entryDy=0;" edge="1" parent="1" source="kqUWAlGGIByAxEXqNYO0-92" target="kqUWAlGGIByAxEXqNYO0-69">
          <mxGeometry relative="1" as="geometry" />
        </mxCell>
        <mxCell id="kqUWAlGGIByAxEXqNYO0-65" value="City" style="swimlane;fontStyle=0;childLayout=stackLayout;horizontal=1;startSize=26;fillColor=none;horizontalStack=0;resizeParent=1;resizeParentMax=0;resizeLast=0;collapsible=1;marginBottom=0;" vertex="1" parent="1">
          <mxGeometry x="1090" y="20" width="140" height="104" as="geometry" />
        </mxCell>
        <mxCell id="kqUWAlGGIByAxEXqNYO0-66" value="ID" style="text;strokeColor=none;fillColor=none;align=left;verticalAlign=top;spacingLeft=4;spacingRight=4;overflow=hidden;rotatable=0;points=[[0,0.5],[1,0.5]];portConstraint=eastwest;" vertex="1" parent="kqUWAlGGIByAxEXqNYO0-65">
          <mxGeometry y="26" width="140" height="26" as="geometry" />
        </mxCell>
        <mxCell id="kqUWAlGGIByAxEXqNYO0-67" value="ID_Country" style="text;strokeColor=none;fillColor=none;align=left;verticalAlign=top;spacingLeft=4;spacingRight=4;overflow=hidden;rotatable=0;points=[[0,0.5],[1,0.5]];portConstraint=eastwest;" vertex="1" parent="kqUWAlGGIByAxEXqNYO0-65">
          <mxGeometry y="52" width="140" height="26" as="geometry" />
        </mxCell>
        <mxCell id="kqUWAlGGIByAxEXqNYO0-68" value="name" style="text;strokeColor=none;fillColor=none;align=left;verticalAlign=top;spacingLeft=4;spacingRight=4;overflow=hidden;rotatable=0;points=[[0,0.5],[1,0.5]];portConstraint=eastwest;" vertex="1" parent="kqUWAlGGIByAxEXqNYO0-65">
          <mxGeometry y="78" width="140" height="26" as="geometry" />
        </mxCell>
        <mxCell id="kqUWAlGGIByAxEXqNYO0-69" value="Flight" style="swimlane;fontStyle=0;childLayout=stackLayout;horizontal=1;startSize=26;fillColor=none;horizontalStack=0;resizeParent=1;resizeParentMax=0;resizeLast=0;collapsible=1;marginBottom=0;" vertex="1" parent="1">
          <mxGeometry x="1090" y="191" width="140" height="182" as="geometry" />
        </mxCell>
        <mxCell id="kqUWAlGGIByAxEXqNYO0-70" value="ID" style="text;strokeColor=none;fillColor=none;align=left;verticalAlign=top;spacingLeft=4;spacingRight=4;overflow=hidden;rotatable=0;points=[[0,0.5],[1,0.5]];portConstraint=eastwest;" vertex="1" parent="kqUWAlGGIByAxEXqNYO0-69">
          <mxGeometry y="26" width="140" height="26" as="geometry" />
        </mxCell>
        <mxCell id="kqUWAlGGIByAxEXqNYO0-71" value="ID_City" style="text;strokeColor=none;fillColor=none;align=left;verticalAlign=top;spacingLeft=4;spacingRight=4;overflow=hidden;rotatable=0;points=[[0,0.5],[1,0.5]];portConstraint=eastwest;" vertex="1" parent="kqUWAlGGIByAxEXqNYO0-69">
          <mxGeometry y="52" width="140" height="26" as="geometry" />
        </mxCell>
        <mxCell id="kqUWAlGGIByAxEXqNYO0-72" value="ID_Plane" style="text;strokeColor=none;fillColor=none;align=left;verticalAlign=top;spacingLeft=4;spacingRight=4;overflow=hidden;rotatable=0;points=[[0,0.5],[1,0.5]];portConstraint=eastwest;" vertex="1" parent="kqUWAlGGIByAxEXqNYO0-69">
          <mxGeometry y="78" width="140" height="26" as="geometry" />
        </mxCell>
        <mxCell id="kqUWAlGGIByAxEXqNYO0-73" value="date" style="text;strokeColor=none;fillColor=none;align=left;verticalAlign=top;spacingLeft=4;spacingRight=4;overflow=hidden;rotatable=0;points=[[0,0.5],[1,0.5]];portConstraint=eastwest;" vertex="1" parent="kqUWAlGGIByAxEXqNYO0-69">
          <mxGeometry y="104" width="140" height="26" as="geometry" />
        </mxCell>
        <mxCell id="kqUWAlGGIByAxEXqNYO0-74" value="takeoff_time" style="text;strokeColor=none;fillColor=none;align=left;verticalAlign=top;spacingLeft=4;spacingRight=4;overflow=hidden;rotatable=0;points=[[0,0.5],[1,0.5]];portConstraint=eastwest;" vertex="1" parent="kqUWAlGGIByAxEXqNYO0-69">
          <mxGeometry y="130" width="140" height="26" as="geometry" />
        </mxCell>
        <mxCell id="kqUWAlGGIByAxEXqNYO0-75" value="boarding_time" style="text;strokeColor=none;fillColor=none;align=left;verticalAlign=top;spacingLeft=4;spacingRight=4;overflow=hidden;rotatable=0;points=[[0,0.5],[1,0.5]];portConstraint=eastwest;" vertex="1" parent="kqUWAlGGIByAxEXqNYO0-69">
          <mxGeometry y="156" width="140" height="26" as="geometry" />
        </mxCell>
        <mxCell id="kqUWAlGGIByAxEXqNYO0-76" value="" style="edgeStyle=orthogonalEdgeStyle;rounded=0;orthogonalLoop=1;jettySize=auto;html=1;startArrow=none;startFill=0;endArrow=ERoneToMany;endFill=0;strokeColor=default;entryX=1;entryY=0.5;entryDx=0;entryDy=0;" edge="1" parent="1" source="kqUWAlGGIByAxEXqNYO0-98" target="kqUWAlGGIByAxEXqNYO0-82">
          <mxGeometry relative="1" as="geometry" />
        </mxCell>
        <mxCell id="kqUWAlGGIByAxEXqNYO0-77" value="Passenger" style="swimlane;fontStyle=0;childLayout=stackLayout;horizontal=1;startSize=26;fillColor=none;horizontalStack=0;resizeParent=1;resizeParentMax=0;resizeLast=0;collapsible=1;marginBottom=0;" vertex="1" parent="1">
          <mxGeometry x="1400" y="472" width="140" height="78" as="geometry" />
        </mxCell>
        <mxCell id="kqUWAlGGIByAxEXqNYO0-78" value="ID" style="text;strokeColor=none;fillColor=none;align=left;verticalAlign=top;spacingLeft=4;spacingRight=4;overflow=hidden;rotatable=0;points=[[0,0.5],[1,0.5]];portConstraint=eastwest;" vertex="1" parent="kqUWAlGGIByAxEXqNYO0-77">
          <mxGeometry y="26" width="140" height="26" as="geometry" />
        </mxCell>
        <mxCell id="kqUWAlGGIByAxEXqNYO0-79" value="name" style="text;strokeColor=none;fillColor=none;align=left;verticalAlign=top;spacingLeft=4;spacingRight=4;overflow=hidden;rotatable=0;points=[[0,0.5],[1,0.5]];portConstraint=eastwest;" vertex="1" parent="kqUWAlGGIByAxEXqNYO0-77">
          <mxGeometry y="52" width="140" height="26" as="geometry" />
        </mxCell>
        <mxCell id="kqUWAlGGIByAxEXqNYO0-80" value="" style="edgeStyle=orthogonalEdgeStyle;rounded=0;orthogonalLoop=1;jettySize=auto;html=1;startArrow=none;startFill=0;endArrow=ERone;endFill=0;strokeColor=default;entryX=0.557;entryY=1.038;entryDx=0;entryDy=0;entryPerimeter=0;" edge="1" parent="1" source="kqUWAlGGIByAxEXqNYO0-96" target="kqUWAlGGIByAxEXqNYO0-75">
          <mxGeometry relative="1" as="geometry">
            <mxPoint x="1130" y="440" as="targetPoint" />
          </mxGeometry>
        </mxCell>
        <mxCell id="kqUWAlGGIByAxEXqNYO0-81" value="Ticket" style="swimlane;fontStyle=0;childLayout=stackLayout;horizontal=1;startSize=26;fillColor=none;horizontalStack=0;resizeParent=1;resizeParentMax=0;resizeLast=0;collapsible=1;marginBottom=0;" vertex="1" parent="1">
          <mxGeometry x="1100" y="470" width="140" height="104" as="geometry" />
        </mxCell>
        <mxCell id="kqUWAlGGIByAxEXqNYO0-82" value="ID_Passenger" style="text;strokeColor=none;fillColor=none;align=left;verticalAlign=top;spacingLeft=4;spacingRight=4;overflow=hidden;rotatable=0;points=[[0,0.5],[1,0.5]];portConstraint=eastwest;" vertex="1" parent="kqUWAlGGIByAxEXqNYO0-81">
          <mxGeometry y="26" width="140" height="26" as="geometry" />
        </mxCell>
        <mxCell id="kqUWAlGGIByAxEXqNYO0-83" value="ID_Flight" style="text;strokeColor=none;fillColor=none;align=left;verticalAlign=top;spacingLeft=4;spacingRight=4;overflow=hidden;rotatable=0;points=[[0,0.5],[1,0.5]];portConstraint=eastwest;" vertex="1" parent="kqUWAlGGIByAxEXqNYO0-81">
          <mxGeometry y="52" width="140" height="26" as="geometry" />
        </mxCell>
        <mxCell id="kqUWAlGGIByAxEXqNYO0-84" value="seat" style="text;strokeColor=none;fillColor=none;align=left;verticalAlign=top;spacingLeft=4;spacingRight=4;overflow=hidden;rotatable=0;points=[[0,0.5],[1,0.5]];portConstraint=eastwest;" vertex="1" parent="kqUWAlGGIByAxEXqNYO0-81">
          <mxGeometry y="78" width="140" height="26" as="geometry" />
        </mxCell>
        <mxCell id="kqUWAlGGIByAxEXqNYO0-85" value="" style="edgeStyle=orthogonalEdgeStyle;rounded=0;orthogonalLoop=1;jettySize=auto;html=1;startArrow=none;startFill=0;endArrow=ERone;endFill=0;strokeColor=default;" edge="1" parent="1" source="kqUWAlGGIByAxEXqNYO0-94" target="kqUWAlGGIByAxEXqNYO0-72">
          <mxGeometry relative="1" as="geometry" />
        </mxCell>
        <mxCell id="kqUWAlGGIByAxEXqNYO0-86" value="Plane" style="swimlane;fontStyle=0;childLayout=stackLayout;horizontal=1;startSize=26;fillColor=none;horizontalStack=0;resizeParent=1;resizeParentMax=0;resizeLast=0;collapsible=1;marginBottom=0;" vertex="1" parent="1">
          <mxGeometry x="830" y="230" width="140" height="104" as="geometry" />
        </mxCell>
        <mxCell id="kqUWAlGGIByAxEXqNYO0-87" value="ID" style="text;strokeColor=none;fillColor=none;align=left;verticalAlign=top;spacingLeft=4;spacingRight=4;overflow=hidden;rotatable=0;points=[[0,0.5],[1,0.5]];portConstraint=eastwest;" vertex="1" parent="kqUWAlGGIByAxEXqNYO0-86">
          <mxGeometry y="26" width="140" height="26" as="geometry" />
        </mxCell>
        <mxCell id="kqUWAlGGIByAxEXqNYO0-88" value="name" style="text;strokeColor=none;fillColor=none;align=left;verticalAlign=top;spacingLeft=4;spacingRight=4;overflow=hidden;rotatable=0;points=[[0,0.5],[1,0.5]];portConstraint=eastwest;" vertex="1" parent="kqUWAlGGIByAxEXqNYO0-86">
          <mxGeometry y="52" width="140" height="26" as="geometry" />
        </mxCell>
        <mxCell id="kqUWAlGGIByAxEXqNYO0-89" value="number_seats" style="text;strokeColor=none;fillColor=none;align=left;verticalAlign=top;spacingLeft=4;spacingRight=4;overflow=hidden;rotatable=0;points=[[0,0.5],[1,0.5]];portConstraint=eastwest;" vertex="1" parent="kqUWAlGGIByAxEXqNYO0-86">
          <mxGeometry y="78" width="140" height="26" as="geometry" />
        </mxCell>
        <mxCell id="kqUWAlGGIByAxEXqNYO0-90" value="Contains" style="text;html=1;strokeColor=none;fillColor=none;align=center;verticalAlign=middle;whiteSpace=wrap;rounded=0;" vertex="1" parent="1">
          <mxGeometry x="1130" y="-30" width="60" height="30" as="geometry" />
        </mxCell>
        <mxCell id="kqUWAlGGIByAxEXqNYO0-91" value="" style="edgeStyle=orthogonalEdgeStyle;rounded=0;orthogonalLoop=1;jettySize=auto;html=1;entryX=0.5;entryY=0;entryDx=0;entryDy=0;endArrow=none;endFill=0;strokeColor=default;startArrow=ERone;startFill=0;" edge="1" parent="1" source="kqUWAlGGIByAxEXqNYO0-61" target="kqUWAlGGIByAxEXqNYO0-90">
          <mxGeometry relative="1" as="geometry">
            <mxPoint x="1180" y="57.99999999999977" as="sourcePoint" />
            <mxPoint x="1180" y="120" as="targetPoint" />
          </mxGeometry>
        </mxCell>
        <mxCell id="kqUWAlGGIByAxEXqNYO0-92" value="Relates" style="text;html=1;strokeColor=none;fillColor=none;align=center;verticalAlign=middle;whiteSpace=wrap;rounded=0;" vertex="1" parent="1">
          <mxGeometry x="1130" y="140" width="60" height="30" as="geometry" />
        </mxCell>
        <mxCell id="kqUWAlGGIByAxEXqNYO0-93" value="" style="edgeStyle=orthogonalEdgeStyle;rounded=0;orthogonalLoop=1;jettySize=auto;html=1;startArrow=ERone;startFill=0;endArrow=none;endFill=0;strokeColor=default;entryX=0.5;entryY=0;entryDx=0;entryDy=0;" edge="1" parent="1" source="kqUWAlGGIByAxEXqNYO0-65" target="kqUWAlGGIByAxEXqNYO0-92">
          <mxGeometry relative="1" as="geometry">
            <mxPoint x="1160" y="123.99999999999977" as="sourcePoint" />
            <mxPoint x="1180" y="260" as="targetPoint" />
          </mxGeometry>
        </mxCell>
        <mxCell id="kqUWAlGGIByAxEXqNYO0-94" value="execute" style="text;html=1;strokeColor=none;fillColor=none;align=center;verticalAlign=middle;whiteSpace=wrap;rounded=0;" vertex="1" parent="1">
          <mxGeometry x="1000" y="265" width="60" height="30" as="geometry" />
        </mxCell>
        <mxCell id="kqUWAlGGIByAxEXqNYO0-95" value="" style="edgeStyle=orthogonalEdgeStyle;rounded=0;orthogonalLoop=1;jettySize=auto;html=1;startArrow=ERoneToMany;startFill=0;endArrow=none;endFill=0;strokeColor=default;" edge="1" parent="1" source="kqUWAlGGIByAxEXqNYO0-86" target="kqUWAlGGIByAxEXqNYO0-94">
          <mxGeometry relative="1" as="geometry">
            <mxPoint x="970" y="282" as="sourcePoint" />
            <mxPoint x="1090" y="282" as="targetPoint" />
          </mxGeometry>
        </mxCell>
        <mxCell id="kqUWAlGGIByAxEXqNYO0-96" value="relates" style="text;html=1;strokeColor=none;fillColor=none;align=center;verticalAlign=middle;whiteSpace=wrap;rounded=0;" vertex="1" parent="1">
          <mxGeometry x="1130" y="410" width="60" height="30" as="geometry" />
        </mxCell>
        <mxCell id="kqUWAlGGIByAxEXqNYO0-97" value="" style="edgeStyle=orthogonalEdgeStyle;rounded=0;orthogonalLoop=1;jettySize=auto;html=1;startArrow=ERoneToMany;startFill=0;endArrow=none;endFill=0;strokeColor=default;entryX=0.557;entryY=1.038;entryDx=0;entryDy=0;entryPerimeter=0;" edge="1" parent="1" source="kqUWAlGGIByAxEXqNYO0-81" target="kqUWAlGGIByAxEXqNYO0-96">
          <mxGeometry relative="1" as="geometry">
            <mxPoint x="1167.98" y="373.98800000000006" as="targetPoint" />
            <mxPoint x="1170" y="470" as="sourcePoint" />
          </mxGeometry>
        </mxCell>
        <mxCell id="kqUWAlGGIByAxEXqNYO0-98" value="defines" style="text;html=1;strokeColor=none;fillColor=none;align=center;verticalAlign=middle;whiteSpace=wrap;rounded=0;" vertex="1" parent="1">
          <mxGeometry x="1280" y="497" width="60" height="30" as="geometry" />
        </mxCell>
        <mxCell id="kqUWAlGGIByAxEXqNYO0-99" value="" style="edgeStyle=orthogonalEdgeStyle;rounded=0;orthogonalLoop=1;jettySize=auto;html=1;startArrow=ERone;startFill=0;endArrow=none;endFill=0;strokeColor=default;entryX=1;entryY=0.5;entryDx=0;entryDy=0;" edge="1" parent="1" source="kqUWAlGGIByAxEXqNYO0-77" target="kqUWAlGGIByAxEXqNYO0-98">
          <mxGeometry relative="1" as="geometry">
            <mxPoint x="1400" y="511" as="sourcePoint" />
            <mxPoint x="1240" y="509" as="targetPoint" />
          </mxGeometry>
        </mxCell>
      </root>
    </mxGraphModel>
  </diagram>
</mxfile>
